<svg width="960" height="980" viewBox="0 0 960 980" fill="none" xmlns="http://www.w3.org/2000/svg">
<path d="M343.5 786.897L194.5 639.897L406.5 149.759L706.345 149.759L706.345 656.897L343.5 786.897Z" fill="url(#paint0_linear)"/>
<path d="M174.025 652.39L187.302 639.113C192.207 634.209 200.183 634.217 205.079 639.113L341.597 775.632C346.493 780.528 346.502 788.504 341.597 793.409L335.454 799.552L339.42 803.519C344.273 808.372 344.273 816.271 339.412 821.132L338.31 822.234C333.458 827.086 325.55 827.095 320.689 822.234L316.73 818.276L310.587 824.419C305.691 829.315 297.706 829.315 292.81 824.419L156.292 687.901C151.387 682.996 151.387 675.028 156.292 670.124L169.439 656.976C163.459 651.874 154.476 652.08 148.823 657.733L130.917 675.639C126.314 680.243 125.143 687.281 128.017 693.132L171.737 782.266C177.216 793.443 175.416 806.731 167.368 816.039C167.226 816.204 167.081 816.367 166.935 816.529L177.054 826.648C178.259 827.852 178.31 829.797 177.175 831.07L125.419 888.54C115.945 898.013 100.526 898.013 91.0439 888.531C81.5704 879.057 81.5704 863.638 91.173 854.053L148.522 802.417C149.787 801.273 151.731 801.325 152.936 802.529L162.349 811.943C162.47 811.804 162.59 811.665 162.708 811.524C168.875 804.165 170.261 793.835 165.98 785.097L122.252 695.954C118.174 687.642 119.834 677.653 126.382 671.105L144.288 653.199C152.445 645.042 165.533 644.792 174.025 652.39ZM321.274 813.732L325.232 817.69C327.589 820.048 331.427 820.048 333.776 817.699L334.877 816.598C337.235 814.24 337.235 810.402 334.877 808.045L330.919 804.087L321.274 813.732Z" fill="#101F1F"/>
<path d="M166.974 816.332L177.093 826.45C178.298 827.655 178.349 829.6 177.213 830.873L125.458 888.342C115.984 897.816 100.565 897.816 91.0827 888.334C81.6091 878.86 81.6091 863.441 91.2117 853.856L148.561 802.22C149.825 801.076 151.77 801.128 152.975 802.332L162.388 811.745C162.509 811.607 162.323 811.939 162.441 811.798L167.051 816.409C166.909 816.573 167.12 816.17 166.974 816.332Z" fill="#101F1F"/>
<path d="M166.974 816.332L177.093 826.45C178.298 827.655 178.349 829.6 177.213 830.873L125.458 888.342C115.984 897.816 100.565 897.816 91.0827 888.334C81.6091 878.86 81.6091 863.441 91.2117 853.856L148.561 802.22C149.825 801.076 151.77 801.128 152.975 802.332L162.388 811.745C162.509 811.607 162.323 811.939 162.441 811.798L167.051 816.409C166.909 816.573 167.12 816.17 166.974 816.332Z" fill="url(#paint1_linear)"/>
<path d="M187.164 639.004L173.887 652.281L169.301 656.867L156.153 670.015C151.249 674.919 151.249 682.887 156.153 687.792L292.672 824.31C297.568 829.206 305.553 829.206 310.449 824.31L316.592 818.167L335.316 799.443L341.459 793.3C346.364 788.395 346.355 780.419 341.459 775.523L204.941 639.004C200.045 634.108 192.068 634.1 187.164 639.004Z" fill="#101F1F"/>
<path d="M187.164 639.004L173.887 652.281L169.301 656.867L156.153 670.015C151.249 674.919 151.249 682.887 156.153 687.792L292.672 824.31C297.568 829.206 305.553 829.206 310.449 824.31L316.592 818.167L335.316 799.443L341.459 793.3C346.364 788.395 346.355 780.419 341.459 775.523L204.941 639.004C200.045 634.108 192.068 634.1 187.164 639.004Z" fill="url(#paint2_linear)"/>
<defs>
<linearGradient id="paint0_linear" x1="761.5" y1="1246.9" x2="1346.11" y2="611.619" gradientUnits="userSpaceOnUse">
<stop offset="0.0677083" stop-color="#00829C"/>
<stop offset="0.197917" stop-color="#4BD8DC"/>
<stop offset="0.34375" stop-color="#00AEC8"/>
<stop offset="0.463542" stop-color="#D5DA00"/>
<stop offset="0.546875" stop-color="#E9671A"/>
<stop offset="0.630208" stop-color="#F96868"/>
<stop offset="0.770833" stop-color="#00AEC8"/>
<stop offset="0.885417" stop-color="#4BD8DC"/>
<stop offset="1" stop-color="#00829C"/>
</linearGradient>
<linearGradient id="paint1_linear" x1="119.411" y1="829.477" x2="140.094" y2="851.539" gradientUnits="userSpaceOnUse">
<stop stop-color="#415252"/>
<stop offset="0.391005" stop-color="#4E5555"/>
<stop offset="1" stop-color="#101F1F"/>
</linearGradient>
<linearGradient id="paint2_linear" x1="273.372" y1="707.056" x2="237.521" y2="742.907" gradientUnits="userSpaceOnUse">
<stop stop-color="#415252"/>
<stop offset="0.4375" stop-color="#4E5555"/>
<stop offset="1" stop-color="#101F1F"/>
</linearGradient>
</defs>
</svg>
