<svg width="260" height="65" viewBox="0 0 260 65" fill="none" xmlns="http://www.w3.org/2000/svg">
<g clip-path="url(#clip0)">
<path d="M53.1863 6.77124H57.6117C59.2466 6.77124 60.5745 8.10205 60.5745 9.734V55.2394C60.5745 56.8714 59.2466 58.2022 57.6117 58.2022H55.5639V59.5244C55.5639 61.142 54.2475 62.4585 52.627 62.4585H52.2599C50.6422 62.4585 49.3229 61.142 49.3229 59.5215V58.2022H47.2751C45.6431 58.2022 44.3123 56.8714 44.3123 55.2394V9.734C44.3123 8.09918 45.6403 6.77124 47.2751 6.77124H51.6576C51.5113 4.92418 49.9797 3.46145 48.0954 3.46145H42.1268C40.5924 3.46145 39.2243 4.43947 38.7281 5.8936L31.1592 28.0354C30.2094 30.8115 27.6949 32.7262 24.8022 32.9361C24.7511 32.9398 24.6999 32.943 24.6486 32.9456V36.3185C24.6486 36.72 24.3331 37.0528 23.9315 37.0757L5.72765 38.0279C2.56986 38.0279 3.05176e-05 35.4581 3.05176e-05 32.2974C3.05176e-05 29.1396 2.56986 26.5698 5.7678 26.5727L23.9315 27.5249C24.3331 27.545 24.6486 27.8777 24.6486 28.2792V31.4169C24.6919 31.4141 24.735 31.4107 24.7781 31.4069C27.0325 31.2082 28.985 29.7177 29.728 27.5478L37.2969 5.40316C38.0025 3.33812 39.9442 1.94995 42.1268 1.94995H48.0954C50.8143 1.94995 53.0371 4.08956 53.1863 6.77124ZM50.8373 58.2022V59.5215C50.8373 60.3074 51.4769 60.947 52.2599 60.947H52.627C53.4128 60.947 54.0524 60.3074 54.0524 59.5215V58.2022H50.8373Z" fill="#101F1F"/>
<path d="M24.6879 32.9191V36.292C24.6879 36.6935 24.3724 37.0262 23.9708 37.0492L5.76695 38.0014C2.60916 38.0014 0.0393372 35.4315 0.0393372 32.2709C0.0393372 29.1131 2.60916 26.5433 5.80711 26.5461L23.9708 27.4984C24.3724 27.5184 24.6879 27.8511 24.6879 28.2527V31.3904C24.7312 31.3875 24.6448 31.4119 24.6879 31.4081V32.9448C24.6368 32.9485 24.7392 32.9164 24.6879 32.9191Z" fill="#101F1F"/>
<path d="M24.6879 32.9191V36.292C24.6879 36.6935 24.3724 37.0262 23.9708 37.0492L5.76695 38.0014C2.60916 38.0014 0.0393372 35.4315 0.0393372 32.2709C0.0393372 29.1131 2.60916 26.5433 5.80711 26.5461L23.9708 27.4984C24.3724 27.5184 24.6879 27.8511 24.6879 28.2527V31.3904C24.7312 31.3875 24.6448 31.4119 24.6879 31.4081V32.9448C24.6368 32.9485 24.7392 32.9164 24.6879 32.9191Z" fill="url(#paint0_linear)"/>
<path d="M57.6068 6.72998H53.1813H51.6526H47.2702C45.6353 6.72998 44.3074 8.05792 44.3074 9.69274V55.1982C44.3074 56.8301 45.6382 58.1609 47.2702 58.1609H49.318H55.559H57.6068C59.2417 58.1609 60.5696 56.8301 60.5696 55.1982V9.69274C60.5696 8.06078 59.2417 6.72998 57.6068 6.72998Z" fill="#101F1F"/>
<path d="M57.6068 6.72998H53.1813H51.6526H47.2702C45.6353 6.72998 44.3074 8.05792 44.3074 9.69274V55.1982C44.3074 56.8301 45.6382 58.1609 47.2702 58.1609H49.318H55.559H57.6068C59.2417 58.1609 60.5696 56.8301 60.5696 55.1982V9.69274C60.5696 8.06078 59.2417 6.72998 57.6068 6.72998Z" fill="url(#paint1_linear)"/>
<path d="M64.8261 54.1238H81.2718C81.616 54.1238 81.8598 53.8943 81.8598 53.5358V46.1361H92.0703C97.4193 46.1361 100.302 43.1963 100.302 37.9189V24.7543C100.302 19.4626 97.4193 16.54 92.0703 16.54H64.8261C64.4676 16.54 64.2381 16.7695 64.2381 17.128V53.5358C64.2381 53.8943 64.4676 54.1238 64.8261 54.1238ZM81.7307 35.7965V26.8624H82.6199V35.7965H81.7307ZM130.95 16.54H107.693C107.406 16.54 107.162 16.6548 107.048 16.9989L101.24 40.027V53.5358C101.24 53.8943 101.469 54.1238 101.828 54.1238H118.334C118.678 54.1238 118.922 53.8943 118.922 53.5358V46.1361H119.739V53.5358C119.739 53.8943 119.968 54.1238 120.327 54.1238H136.83C137.189 54.1238 137.418 53.8943 137.418 53.5358V40.027L131.653 16.9989C131.538 16.6548 131.309 16.54 130.95 16.54ZM118.979 26.8624H119.682L119.796 37.6751H118.864L118.979 26.8624ZM138.359 17.128V53.5358C138.359 53.8943 138.588 54.1238 138.947 54.1238H155.395C155.739 54.1238 155.983 53.8943 155.983 53.5358V17.128C155.983 16.7695 155.739 16.54 155.395 16.54H138.947C138.588 16.54 138.359 16.7695 138.359 17.128ZM157.506 54.1238H172.779C173.123 54.1238 173.367 53.8943 173.367 53.5358V48.2441L169.667 40.615H170.312L177.354 53.7079C177.526 54.009 177.712 54.1238 177.999 54.1238H192.394C192.738 54.1238 192.982 53.8943 192.982 53.5358V17.128C192.982 16.7695 192.738 16.54 192.394 16.54H177.009C176.708 16.54 176.479 16.7695 176.479 17.128V22.4025L180.064 29.6875H179.347L172.478 16.9416C172.306 16.6548 172.076 16.54 171.832 16.54H157.506C157.148 16.54 156.918 16.7695 156.918 17.128V53.5358C156.918 53.8943 157.148 54.1238 157.506 54.1238ZM221.64 16.54H194.508C194.149 16.54 193.92 16.7695 193.92 17.128V30.2754C193.92 30.6339 194.149 30.8634 194.508 30.8634H199.269V53.5358C199.269 53.8943 199.498 54.1238 199.842 54.1238H216.348C216.65 54.1238 216.879 53.8943 216.879 53.5358V30.8634H221.64C221.999 30.8634 222.228 30.6339 222.228 30.2754V17.128C222.228 16.7695 221.999 16.54 221.64 16.54ZM259.35 29.2716V24.7543C259.35 19.4626 256.41 16.54 251.119 16.54H223.757C223.398 16.54 223.169 16.7695 223.169 17.128V53.5358C223.169 53.8943 223.398 54.1238 223.757 54.1238H240.263C240.607 54.1238 240.851 53.8943 240.851 53.5358V41.3176L241.668 42.2641V53.5358C241.668 53.8943 241.898 54.1238 242.256 54.1238H258.762C259.121 54.1238 259.35 53.8943 259.35 53.5358V39.6685L255.406 35.8539C257.816 34.6206 259.35 32.6273 259.35 29.2716ZM241.668 32.8567H240.851V26.8624H241.668V32.8567Z" fill="#FDFDFD" stroke="#101F1F" stroke-width="2.3"/>
</g>
<defs>
<linearGradient id="paint0_linear" x1="14.57" y1="27.1829" x2="14.3402" y2="34.307" gradientUnits="userSpaceOnUse">
<stop stop-color="#415252"/>
<stop offset="0.391005" stop-color="#4E5555"/>
<stop offset="1" stop-color="#101F1F"/>
</linearGradient>
<linearGradient id="paint1_linear" x1="60.6329" y1="32.4395" x2="48.6828" y2="32.4395" gradientUnits="userSpaceOnUse">
<stop stop-color="#415252"/>
<stop offset="0.4375" stop-color="#4E5555"/>
<stop offset="1" stop-color="#101F1F"/>
</linearGradient>
<clipPath id="clip0">
<rect width="260" height="65" fill="white"/>
</clipPath>
</defs>
</svg>
